<svg width="190" height="38" viewBox="0 0 190 38" fill="none" xmlns="http://www.w3.org/2000/svg">
    <path
        d="M23.294 8.632H9.014V15.856H18.632L22.202 19.468V30.346L18.632 34H8.468L4.856 30.346V27.448L9.014 23.458V30.346H18.044V19.468H8.468L4.856 15.856V8.632L8.468 4.978H19.64L23.294 8.632ZM42.4739 8.632H35.9639V34H31.8059V8.632H25.3379V4.978H42.4739V8.632ZM50.7984 34H46.6404V4.978H50.7984V34ZM79.3112 33.958H71.2892L64.2332 8.674H60.6632L63.2672 11.152V33.958H59.1092V4.936H67.1732L74.1452 30.304H77.7572L75.1532 27.658V4.936H79.3112V33.958ZM106.263 8.632H91.269V30.346H101.097V19.468H94.335L97.989 15.856H105.255V34H101.097V30.892L97.989 34H90.723L87.111 30.346V8.632L90.723 4.978H102.609L106.263 8.632ZM129.6 24.676L122.754 34H118.092L111.456 24.676V4.978H115.698V23.92L119.982 30.472H121.074L125.442 23.92V4.978H129.6V24.676ZM154.773 19.468L151.119 23.122H140.787V34H136.629V12.202L140.283 8.632H136.125V4.978H151.119L154.773 8.632V19.468ZM150.615 19.468V8.632H140.787V22.618L143.853 19.468H150.615ZM181.481 33.958H173.459L166.403 8.674H162.833L165.437 11.152V33.958H161.279V4.936H169.343L176.315 30.304H179.927L177.323 27.658V4.936H181.481V33.958Z"
        fill="#4D42CA" />
    <path
        d="M23.294 8.632V12.632H32.9509L26.1224 5.80357L23.294 8.632ZM9.014 8.632V4.632H5.014V8.632H9.014ZM9.014 15.856H5.014V19.856H9.014V15.856ZM18.632 15.856L21.4769 13.0442L20.3026 11.856H18.632V15.856ZM22.202 19.468H26.202V17.8248L25.0469 16.6562L22.202 19.468ZM22.202 30.346L25.0631 33.1413L26.202 31.9757V30.346H22.202ZM18.632 34V38H20.3162L21.4931 36.7953L18.632 34ZM8.468 34L5.62327 36.812L6.79759 38H8.468V34ZM4.856 30.346H0.856V31.9893L2.01127 33.158L4.856 30.346ZM4.856 27.448L2.08648 24.5619L0.856 25.7426V27.448H4.856ZM9.014 23.458H13.014V14.0759L6.24448 20.5719L9.014 23.458ZM9.014 30.346H5.014V34.346H9.014V30.346ZM18.044 30.346V34.346H22.044V30.346H18.044ZM18.044 19.468H22.044V15.468H18.044V19.468ZM8.468 19.468L5.63957 22.2964L6.81115 23.468H8.468V19.468ZM4.856 15.856H0.856V17.5129L2.02757 18.6844L4.856 15.856ZM4.856 8.632L2.01127 5.81997L0.856 6.98867V8.632H4.856ZM8.468 4.978V0.977998H6.79759L5.62327 2.16597L8.468 4.978ZM19.64 4.978L22.4684 2.14957L21.2969 0.977998H19.64V4.978ZM23.294 4.632H9.014V12.632H23.294V4.632ZM5.014 8.632V15.856H13.014V8.632H5.014ZM9.014 19.856H18.632V11.856H9.014V19.856ZM15.7871 18.6678L19.3571 22.2798L25.0469 16.6562L21.4769 13.0442L15.7871 18.6678ZM18.202 19.468V30.346H26.202V19.468H18.202ZM19.3409 27.5507L15.7709 31.2047L21.4931 36.7953L25.0631 33.1413L19.3409 27.5507ZM18.632 30H8.468V38H18.632V30ZM11.3127 31.188L7.70073 27.534L2.01127 33.158L5.62327 36.812L11.3127 31.188ZM8.856 30.346V27.448H0.856V30.346H8.856ZM7.62552 30.3341L11.7835 26.3441L6.24448 20.5719L2.08648 24.5619L7.62552 30.3341ZM5.014 23.458V30.346H13.014V23.458H5.014ZM9.014 34.346H18.044V26.346H9.014V34.346ZM22.044 30.346V19.468H14.044V30.346H22.044ZM18.044 15.468H8.468V23.468H18.044V15.468ZM11.2964 16.6396L7.68443 13.0276L2.02757 18.6844L5.63957 22.2964L11.2964 16.6396ZM8.856 15.856V8.632H0.856V15.856H8.856ZM7.70073 11.444L11.3127 7.79003L5.62327 2.16597L2.01127 5.81997L7.70073 11.444ZM8.468 8.978H19.64V0.977998H8.468V8.978ZM16.8116 7.80643L20.4656 11.4604L26.1224 5.80357L22.4684 2.14957L16.8116 7.80643ZM42.4739 8.632V12.632H46.4739V8.632H42.4739ZM35.9639 8.632V4.632H31.9639V8.632H35.9639ZM35.9639 34V38H39.9639V34H35.9639ZM31.8059 34H27.8059V38H31.8059V34ZM31.8059 8.632H35.8059V4.632H31.8059V8.632ZM25.3379 8.632H21.3379V12.632H25.3379V8.632ZM25.3379 4.978V0.977998H21.3379V4.978H25.3379ZM42.4739 4.978H46.4739V0.977998H42.4739V4.978ZM42.4739 4.632H35.9639V12.632H42.4739V4.632ZM31.9639 8.632V34H39.9639V8.632H31.9639ZM35.9639 30H31.8059V38H35.9639V30ZM35.8059 34V8.632H27.8059V34H35.8059ZM31.8059 4.632H25.3379V12.632H31.8059V4.632ZM29.3379 8.632V4.978H21.3379V8.632H29.3379ZM25.3379 8.978H42.4739V0.977998H25.3379V8.978ZM38.4739 4.978V8.632H46.4739V4.978H38.4739ZM50.7984 34V38H54.7984V34H50.7984ZM46.6404 34H42.6404V38H46.6404V34ZM46.6404 4.978V0.977998H42.6404V4.978H46.6404ZM50.7984 4.978H54.7984V0.977998H50.7984V4.978ZM50.7984 30H46.6404V38H50.7984V30ZM50.6404 34V4.978H42.6404V34H50.6404ZM46.6404 8.978H50.7984V0.977998H46.6404V8.978ZM46.7984 4.978V34H54.7984V4.978H46.7984ZM79.3112 33.958V37.958H83.3112V33.958H79.3112ZM71.2892 33.958L67.4364 35.0332L68.2526 37.958H71.2892V33.958ZM64.2332 8.674L68.086 7.5988L67.2697 4.674H64.2332V8.674ZM60.6632 8.674V4.674H50.6573L57.9057 11.5717L60.6632 8.674ZM63.2672 11.152H67.2672V9.43676L66.0246 8.25434L63.2672 11.152ZM63.2672 33.958V37.958H67.2672V33.958H63.2672ZM59.1092 33.958H55.1092V37.958H59.1092V33.958ZM59.1092 4.936V0.935999H55.1092V4.936H59.1092ZM67.1732 4.936L71.0302 3.87597L70.2222 0.935999H67.1732V4.936ZM74.1452 30.304L70.2882 31.364L71.0962 34.304H74.1452V30.304ZM77.7572 30.304V34.304H87.3058L80.6081 27.4983L77.7572 30.304ZM75.1532 27.658H71.1532V29.2961L72.3022 30.4637L75.1532 27.658ZM75.1532 4.936V0.935999H71.1532V4.936H75.1532ZM79.3112 4.936H83.3112V0.935999H79.3112V4.936ZM79.3112 29.958H71.2892V37.958H79.3112V29.958ZM75.142 32.8828L68.086 7.5988L60.3804 9.74919L67.4364 35.0332L75.142 32.8828ZM64.2332 4.674H60.6632V12.674H64.2332V4.674ZM57.9057 11.5717L60.5097 14.0497L66.0246 8.25434L63.4206 5.77634L57.9057 11.5717ZM59.2672 11.152V33.958H67.2672V11.152H59.2672ZM63.2672 29.958H59.1092V37.958H63.2672V29.958ZM63.1092 33.958V4.936H55.1092V33.958H63.1092ZM59.1092 8.936H67.1732V0.935999H59.1092V8.936ZM63.3162 5.99603L70.2882 31.364L78.0022 29.244L71.0302 3.87597L63.3162 5.99603ZM74.1452 34.304H77.7572V26.304H74.1452V34.304ZM80.6081 27.4983L78.0041 24.8523L72.3022 30.4637L74.9062 33.1097L80.6081 27.4983ZM79.1532 27.658V4.936H71.1532V27.658H79.1532ZM75.1532 8.936H79.3112V0.935999H75.1532V8.936ZM75.3112 4.936V33.958H83.3112V4.936H75.3112ZM106.263 8.632V12.632H115.92L109.091 5.80357L106.263 8.632ZM91.269 8.632V4.632H87.269V8.632H91.269ZM91.269 30.346H87.269V34.346H91.269V30.346ZM101.097 30.346V34.346H105.097V30.346H101.097ZM101.097 19.468H105.097V15.468H101.097V19.468ZM94.335 19.468L91.523 16.6233L84.5987 23.468H94.335V19.468ZM97.989 15.856V11.856H96.3457L95.177 13.0113L97.989 15.856ZM105.255 15.856H109.255V11.856H105.255V15.856ZM105.255 34V38H109.255V34H105.255ZM101.097 34H97.097V38H101.097V34ZM101.097 30.892H105.097V21.2351L98.2686 28.0636L101.097 30.892ZM97.989 34V38H99.6459L100.817 36.8284L97.989 34ZM90.723 34L87.8783 36.812L89.0526 38H90.723V34ZM87.111 30.346H83.111V31.9893L84.2663 33.158L87.111 30.346ZM87.111 8.632L84.2663 5.81997L83.111 6.98867V8.632H87.111ZM90.723 4.978V0.977998H89.0526L87.8783 2.16597L90.723 4.978ZM102.609 4.978L105.437 2.14957L104.266 0.977998H102.609V4.978ZM106.263 4.632H91.269V12.632H106.263V4.632ZM87.269 8.632V30.346H95.269V8.632H87.269ZM91.269 34.346H101.097V26.346H91.269V34.346ZM105.097 30.346V19.468H97.097V30.346H105.097ZM101.097 15.468H94.335V23.468H101.097V15.468ZM97.1471 22.3127L100.801 18.7007L95.177 13.0113L91.523 16.6233L97.1471 22.3127ZM97.989 19.856H105.255V11.856H97.989V19.856ZM101.255 15.856V34H109.255V15.856H101.255ZM105.255 30H101.097V38H105.255V30ZM105.097 34V30.892H97.097V34H105.097ZM98.2686 28.0636L95.1606 31.1716L100.817 36.8284L103.925 33.7204L98.2686 28.0636ZM97.989 30H90.723V38H97.989V30ZM93.5678 31.188L89.9558 27.534L84.2663 33.158L87.8783 36.812L93.5678 31.188ZM91.111 30.346V8.632H83.111V30.346H91.111ZM89.9558 11.444L93.5678 7.79003L87.8783 2.16597L84.2663 5.81997L89.9558 11.444ZM90.723 8.978H102.609V0.977998H90.723V8.978ZM99.7806 7.80643L103.435 11.4604L109.091 5.80357L105.437 2.14957L99.7806 7.80643ZM129.6 24.676L132.824 27.0433L133.6 25.9868V24.676H129.6ZM122.754 34V38H124.779L125.978 36.3673L122.754 34ZM118.092 34L114.833 36.3194L116.029 38H118.092V34ZM111.456 24.676H107.456V25.9541L108.197 26.9954L111.456 24.676ZM111.456 4.978V0.977998H107.456V4.978H111.456ZM115.698 4.978H119.698V0.977998H115.698V4.978ZM115.698 23.92H111.698V25.1116L112.35 26.109L115.698 23.92ZM119.982 30.472L116.634 32.661L117.818 34.472H119.982V30.472ZM121.074 30.472V34.472H123.214L124.402 32.6908L121.074 30.472ZM125.442 23.92L128.77 26.1388L129.442 25.1311V23.92H125.442ZM125.442 4.978V0.977998H121.442V4.978H125.442ZM129.6 4.978H133.6V0.977998H129.6V4.978ZM126.375 22.3087L119.529 31.6327L125.978 36.3673L132.824 27.0433L126.375 22.3087ZM122.754 30H118.092V38H122.754V30ZM121.351 31.6806L114.715 22.3566L108.197 26.9954L114.833 36.3194L121.351 31.6806ZM115.456 24.676V4.978H107.456V24.676H115.456ZM111.456 8.978H115.698V0.977998H111.456V8.978ZM111.698 4.978V23.92H119.698V4.978H111.698ZM112.35 26.109L116.634 32.661L123.329 28.283L119.045 21.731L112.35 26.109ZM119.982 34.472H121.074V26.472H119.982V34.472ZM124.402 32.6908L128.77 26.1388L122.113 21.7012L117.745 28.2532L124.402 32.6908ZM129.442 23.92V4.978H121.442V23.92H129.442ZM125.442 8.978H129.6V0.977998H125.442V8.978ZM125.6 4.978V24.676H133.6V4.978H125.6ZM154.773 19.468L157.601 22.2964L158.773 21.1249V19.468H154.773ZM151.119 23.122V27.122H152.776L153.947 25.9504L151.119 23.122ZM140.787 23.122V19.122H136.787V23.122H140.787ZM140.787 34V38H144.787V34H140.787ZM136.629 34H132.629V38H136.629V34ZM136.629 12.202L133.833 9.34087L132.629 10.5178V12.202H136.629ZM140.283 8.632L143.078 11.4931L150.101 4.632H140.283V8.632ZM136.125 8.632H132.125V12.632H136.125V8.632ZM136.125 4.978V0.977998H132.125V4.978H136.125ZM151.119 4.978L153.947 2.14957L152.776 0.977998H151.119V4.978ZM154.773 8.632H158.773V6.97514L157.601 5.80357L154.773 8.632ZM150.615 19.468V23.468H154.615V19.468H150.615ZM150.615 8.632H154.615V4.632H150.615V8.632ZM140.787 8.632V4.632H136.787V8.632H140.787ZM140.787 22.618H136.787V32.4625L143.653 25.4079L140.787 22.618ZM143.853 19.468V15.468H142.164L140.986 16.678L143.853 19.468ZM151.944 16.6396L148.29 20.2936L153.947 25.9504L157.601 22.2964L151.944 16.6396ZM151.119 19.122H140.787V27.122H151.119V19.122ZM136.787 23.122V34H144.787V23.122H136.787ZM140.787 30H136.629V38H140.787V30ZM140.629 34V12.202H132.629V34H140.629ZM139.424 15.0631L143.078 11.4931L137.487 5.77088L133.833 9.34087L139.424 15.0631ZM140.283 4.632H136.125V12.632H140.283V4.632ZM140.125 8.632V4.978H132.125V8.632H140.125ZM136.125 8.978H151.119V0.977998H136.125V8.978ZM148.29 7.80643L151.944 11.4604L157.601 5.80357L153.947 2.14957L148.29 7.80643ZM150.773 8.632V19.468H158.773V8.632H150.773ZM154.615 19.468V8.632H146.615V19.468H154.615ZM150.615 4.632H140.787V12.632H150.615V4.632ZM136.787 8.632V22.618H144.787V8.632H136.787ZM143.653 25.4079L146.719 22.2579L140.986 16.678L137.92 19.828L143.653 25.4079ZM143.853 23.468H150.615V15.468H143.853V23.468ZM181.481 33.958V37.958H185.481V33.958H181.481ZM173.459 33.958L169.606 35.0332L170.423 37.958H173.459V33.958ZM166.403 8.674L170.256 7.5988L169.44 4.674H166.403V8.674ZM162.833 8.674V4.674H152.827L160.076 11.5717L162.833 8.674ZM165.437 11.152H169.437V9.43676L168.195 8.25434L165.437 11.152ZM165.437 33.958V37.958H169.437V33.958H165.437ZM161.279 33.958H157.279V37.958H161.279V33.958ZM161.279 4.936V0.935999H157.279V4.936H161.279ZM169.343 4.936L173.2 3.87597L172.392 0.935999H169.343V4.936ZM176.315 30.304L172.458 31.364L173.266 34.304H176.315V30.304ZM179.927 30.304V34.304H189.476L182.778 27.4983L179.927 30.304ZM177.323 27.658H173.323V29.2961L174.472 30.4637L177.323 27.658ZM177.323 4.936V0.935999H173.323V4.936H177.323ZM181.481 4.936H185.481V0.935999H181.481V4.936ZM181.481 29.958H173.459V37.958H181.481V29.958ZM177.312 32.8828L170.256 7.5988L162.55 9.74919L169.606 35.0332L177.312 32.8828ZM166.403 4.674H162.833V12.674H166.403V4.674ZM160.076 11.5717L162.68 14.0497L168.195 8.25434L165.591 5.77634L160.076 11.5717ZM161.437 11.152V33.958H169.437V11.152H161.437ZM165.437 29.958H161.279V37.958H165.437V29.958ZM165.279 33.958V4.936H157.279V33.958H165.279ZM161.279 8.936H169.343V0.935999H161.279V8.936ZM165.486 5.99603L172.458 31.364L180.172 29.244L173.2 3.87597L165.486 5.99603ZM176.315 34.304H179.927V26.304H176.315V34.304ZM182.778 27.4983L180.174 24.8523L174.472 30.4637L177.076 33.1097L182.778 27.4983ZM181.323 27.658V4.936H173.323V27.658H181.323ZM177.323 8.936H181.481V0.935999H177.323V8.936ZM177.481 4.936V33.958H185.481V4.936H177.481Z"
        fill="" />
</svg>
