<svg width="93" height="98" viewBox="0 0 93 98" fill="none" xmlns="http://www.w3.org/2000/svg">
    <path fill-rule="evenodd" clip-rule="evenodd"
        d="M46.2631 4H46.5474H46.8317L47.5897 4.40577C48.0951 4.67628 49.2954 5.19026 51.1906 5.9477C53.0227 6.70514 54.7915 7.40848 56.4972 8.05771C58.1397 8.70694 59.7822 9.32913 61.4248 9.92426C63.0041 10.5194 64.1412 10.8981 64.8361 11.0604C65.4679 11.2227 66.8893 11.6014 69.1003 12.1966C71.3114 12.7917 72.9539 13.1704 74.0279 13.3327C75.1018 13.495 76.7443 13.7656 78.9554 14.1443C81.1665 14.523 83.3144 14.8206 85.3991 15.037C87.4838 15.3616 88.5578 15.5239 88.621 15.5239H88.7157L88.8105 15.605L88.9052 15.6862H89V17.7151V19.7439H88.9052V20.0685V20.4743V20.5555C88.9052 20.6637 88.9052 20.7719 88.9052 20.8801C88.9052 21.0424 88.7157 24.1262 88.3367 30.1317C87.9576 36.083 87.6418 39.816 87.3891 41.3309C87.1364 42.8458 86.7573 44.55 86.252 46.4436C85.7466 48.3372 85.178 50.312 84.5463 52.3679C83.9145 54.4238 83.188 56.3715 82.3668 58.211C81.5455 59.9964 80.7559 61.6195 79.9978 63.0802C79.2397 64.4869 78.4816 65.7854 77.7235 66.9757C76.9654 68.22 76.3969 69.0857 76.0178 69.5726C75.7651 70.0054 75.2598 70.7087 74.5017 71.6826C73.8699 72.6023 72.796 73.9549 71.2798 75.7403C69.89 77.4716 69.0372 78.4995 68.7213 78.8242C68.4054 79.1488 68.2159 79.3111 68.1527 79.3111C68.0896 79.3111 67.9316 79.4464 67.6789 79.7169C67.4262 79.9333 67.2051 80.1226 67.0156 80.2849C66.7629 80.5014 66.6366 80.6366 66.6366 80.6907C66.5734 80.7448 66.1628 81.1235 65.4047 81.8269C64.6466 82.5302 64.1412 82.9901 63.8885 83.2065C63.699 83.4229 63.5095 83.5852 63.32 83.6934C63.1304 83.8016 62.9409 83.9639 62.7514 84.1803C62.4987 84.3968 62.3092 84.532 62.1828 84.5861C61.9933 84.6402 61.8986 84.6943 61.8986 84.7484C61.8354 84.8025 61.5511 85.0189 61.0457 85.3977C60.5403 85.7764 59.3716 86.6691 57.5396 88.0757C55.7075 89.3742 53.8439 90.5645 51.9487 91.6465C49.9903 92.7286 48.5373 93.4319 47.5897 93.7565C46.7053 94.0812 45.9472 94.0812 45.3155 93.7565C44.6206 93.5401 43.4203 92.945 41.7146 91.9711C39.9457 91.1055 38.7454 90.4563 38.1137 90.0234C37.4188 89.5906 37.0714 89.3472 37.0714 89.2931C37.0082 89.239 36.6923 88.9955 36.1237 88.5627C35.492 88.1298 35.0498 87.8323 34.7971 87.67C34.5444 87.5077 33.502 86.7232 31.67 85.3165C29.9012 83.9098 28.4482 82.6655 27.311 81.5834C26.1739 80.5014 25.2263 79.6357 24.4682 78.9865C23.8365 78.2831 23.0152 77.3634 22.0045 76.2272C21.12 75.037 20.5831 74.3877 20.3935 74.2795C20.2672 74.1713 20.0145 73.8467 19.6355 73.3057C19.1932 72.7646 18.909 72.3859 18.7826 72.1695C18.6563 71.899 18.5615 71.7637 18.4983 71.7637C18.4352 71.7637 17.835 70.9252 16.6979 69.248C15.5608 67.5167 14.6132 66.0559 13.8551 64.8656C13.2233 63.6754 12.4968 62.2146 11.6756 60.4833C10.8543 58.8061 10.1278 57.156 9.4961 55.5329C8.86436 53.9098 8.23263 51.8539 7.60089 49.3652C6.84281 46.8765 6.36901 45.1452 6.17949 44.1713C5.98997 43.1975 5.76886 42.0884 5.51617 40.844C5.38982 39.6537 5.16871 36.8945 4.85284 32.5663C4.53698 28.2381 4.31587 25.0189 4.18952 22.9089L4 19.7439V17.7962V15.7674L4.09476 15.6862H4.18952L7.79041 15.1181C10.1278 14.7394 12.2126 14.4418 14.0446 14.2254C15.9398 13.9008 18.1509 13.468 20.6778 12.927C23.2048 12.3859 25.6054 11.7908 27.8796 11.1416C30.1538 10.4382 32.2702 9.7349 34.2285 9.03156C36.1869 8.27412 37.7978 7.65194 39.0613 7.16501C40.2616 6.67809 40.9565 6.38052 41.146 6.27232C41.3987 6.21821 42.22 5.86655 43.6098 5.21731C45.126 4.56808 45.9472 4.21641 46.0736 4.16231C46.1999 4.0541 46.2631 4 46.2631 4Z"
        fill="#E5E5E5" stroke="#4D42CA" stroke-width="8" />
    <path
        d="M50.2913 29.8644C46.9221 30.1788 44.0866 31.5376 42.0405 33.8214C40.6227 35.4042 39.9344 37.0556 39.8555 39.0612C39.7891 40.6802 40.3038 42.4798 41.3332 44.2433C42.031 45.4322 42.3468 45.8333 45.116 49.0169C47.56 51.8284 47.8883 52.2223 48.3494 52.9342C48.9998 53.9388 49.4892 55.1241 49.7008 56.2118C49.7608 56.5262 49.7703 56.6779 49.7703 57.4368C49.7734 58.1993 49.764 58.3547 49.7008 58.7088C49.4482 60.1435 48.8167 61.3974 47.7463 62.5899C46.8527 63.5873 45.858 64.3534 44.696 64.9352C43.3477 65.611 41.9079 65.9543 40.1902 66.0085C38.223 66.0663 36.7863 65.6905 35.599 64.8015C35.2643 64.5522 34.6802 63.8619 34.5097 63.515C34.1939 62.8718 34.0834 62.2105 34.1529 61.3432C34.2697 59.8471 34.8665 58.7522 36.0537 57.8379C36.3695 57.5922 37.1431 57.1513 37.5694 56.9743C39.0534 56.3455 40.9701 56.0094 43.3635 55.948C43.9351 55.9371 44.3045 55.9118 44.3487 55.8866C44.3866 55.8649 44.4939 55.7348 44.5918 55.6011C44.7908 55.3228 44.7971 55.2831 44.7371 54.7482C44.7023 54.4411 44.6802 54.4086 44.4087 54.2026L44.2129 54.058H42.9183C40.0639 54.058 37.8977 54.3182 35.8801 54.9072C33.1803 55.6914 31.3458 57.0357 30.5343 58.8209C29.7449 60.5627 29.8364 62.7381 30.7679 64.31C31.8731 66.1711 34.1276 67.4503 36.9852 67.8406C38.1851 68.0032 39.3123 68.043 40.3796 67.9526C42.1352 67.8045 43.4614 67.519 44.9423 66.9697C47.6673 65.9579 50.2029 64.0137 51.6932 61.7985C52.9436 59.9411 53.6225 57.7729 53.531 55.9371C53.4268 53.834 52.7321 51.9223 51.3933 50.0396C51.0933 49.6168 50.8502 49.3313 47.9073 45.9092C46.0443 43.741 45.7759 43.4193 45.3244 42.8014C44.5097 41.692 44.0203 40.7705 43.7456 39.8201C43.5782 39.2419 43.5277 38.848 43.5277 38.1578C43.5277 37.4495 43.594 37.0159 43.793 36.4341C44.4813 34.4213 46.5653 32.6397 48.8388 32.1266C50.1018 31.8411 51.6932 31.8772 52.5868 32.2169C53.3541 32.506 53.9257 33.0011 54.1877 33.601C54.3456 33.9623 54.3772 34.1828 54.3582 34.761C54.3393 35.3211 54.2698 35.6066 54.0456 36.0438C53.8814 36.3582 53.4804 36.8208 53.1678 37.0556C52.1164 37.8398 50.7554 38.2301 48.823 38.2988C48.302 38.3168 48.1094 38.3349 48.0715 38.371C48.0431 38.3999 47.9547 38.5192 47.8789 38.6348L47.7368 38.8516V39.2455C47.7368 39.6936 47.7305 39.6828 48.062 39.943C48.2167 40.0622 48.2483 40.0731 48.6367 40.1164C49.2556 40.1851 50.9196 40.1743 51.5101 40.0984C53.3952 39.8454 54.8129 39.3142 56.0065 38.4108C56.758 37.8434 57.2727 37.2508 57.6295 36.5497C58.2389 35.3464 58.2389 33.7094 57.6327 32.553C56.8843 31.1256 55.3403 30.2041 53.1994 29.9006C52.6216 29.8174 51.0017 29.7958 50.2913 29.8644Z"
        fill="#3D30CB" fill-opacity="0.88" />
    <g clip-path="url(#clip0)">
        <path
            d="M53.741 46.2066C53.535 46.2326 53.3322 46.2869 53.1295 46.3694C52.8744 46.4714 52.8025 46.4888 52.5164 46.5105C52.2646 46.53 52.2613 46.5322 52.1322 46.619C51.8608 46.7992 51.2885 47.3831 50.9419 47.8324C50.7179 48.1233 50.5871 48.3425 50.5871 48.425C50.5871 48.501 50.4874 48.7224 50.4171 48.8005C50.3795 48.8418 50.3337 48.8939 50.3157 48.9156C50.2634 48.9763 50.1849 49.3215 50.0885 49.9076C49.9871 50.5197 49.9789 50.6629 50.0312 50.8648C50.0607 50.9777 50.0656 51.0363 50.0607 51.3619C50.0558 51.7157 50.0574 51.7353 50.0917 51.7939C50.1277 51.8525 50.1277 51.8568 50.1015 51.9328C50.0361 52.126 50.0476 52.1933 50.2765 52.9573C50.5136 53.7518 50.5414 53.8147 50.8405 54.2033C51.0613 54.4942 51.107 54.5788 51.1414 54.7698C51.1528 54.8284 51.197 54.9912 51.2411 55.128C51.3343 55.4254 51.3752 55.6055 51.3686 55.6859L51.3637 55.7466L51.0858 55.7597C50.682 55.7792 50.6067 55.8074 50.0509 56.1504C49.5555 56.4564 49.5538 56.4586 49.4181 56.4456C49.3544 56.4412 49.235 56.4065 49.15 56.3696C49.065 56.3327 48.9898 56.3067 48.9816 56.3132C48.9652 56.3262 48.9636 56.4412 48.9783 56.5367C48.993 56.6344 49.0486 56.6952 49.186 56.7625C49.253 56.7951 49.3168 56.8363 49.3282 56.8537C49.3544 56.8971 49.3168 56.9817 49.065 57.4289C48.9554 57.6264 48.7805 57.9477 48.6775 58.1452C48.4649 58.5511 48.4404 58.5924 48.1903 58.9809C47.9875 59.2957 47.8224 59.5127 47.7047 59.6191C47.6622 59.6582 47.5363 59.7472 47.4235 59.8166C47.1913 59.962 47.1161 60.0293 47.0883 60.1205C47.0621 60.2052 47.0883 60.292 47.1652 60.381C47.2436 60.4743 47.2861 60.4656 47.3597 60.3463C47.4398 60.2182 47.551 60.1183 47.8208 59.9382C48.0922 59.7537 48.1592 59.6734 48.4421 59.1871C48.5647 58.9787 48.7053 58.7443 48.756 58.6662C48.89 58.46 48.9898 58.2863 49.1974 57.8891C49.2988 57.6937 49.4198 57.4897 49.4655 57.4354C49.5751 57.3052 49.7271 57.2118 49.9969 57.1141C50.2732 57.0165 50.368 56.9492 50.5512 56.7234C50.7261 56.5085 50.7702 56.4847 50.9615 56.502C51.1577 56.5194 51.6172 56.6757 51.73 56.7625C51.8428 56.8515 51.9932 57.0447 51.9932 57.0989C51.9932 57.1814 51.8215 57.4853 51.6253 57.7436C51.5174 57.8869 51.4112 58.0171 51.3883 58.0302C51.3654 58.0454 51.3131 58.0757 51.2705 58.0996C51.2019 58.1365 51.1921 58.1517 51.1921 58.206C51.1921 58.2429 51.2117 58.3037 51.2411 58.3514C51.2689 58.397 51.2902 58.4382 51.2902 58.4426C51.2902 58.4491 51.2526 58.5077 51.2068 58.575C51.112 58.7117 50.9403 59.1611 50.8471 59.5106C50.7817 59.7602 50.6901 59.9642 50.4776 60.3419C50.301 60.6545 50.2127 60.7739 50.1228 60.8238C50.0639 60.8564 50.0607 60.8672 50.0394 61.0409C50.0263 61.1494 49.974 61.2167 49.8105 61.3361C49.6519 61.449 49.6062 61.501 49.6062 61.5662C49.6062 61.6291 49.768 61.8635 49.8367 61.9026C49.8825 61.9265 49.8906 61.9243 49.9103 61.8896C49.9233 61.8679 49.9331 61.818 49.9331 61.7832C49.9331 61.6052 50.0688 61.4837 50.2601 61.4859C50.4171 61.488 50.4433 61.4707 50.4776 61.3404C50.4923 61.2796 50.5348 61.1733 50.5724 61.1038C50.7343 60.7956 50.8193 60.6089 50.9386 60.3159C51.0547 60.0272 51.1038 59.9251 51.2411 59.6755C51.2673 59.6278 51.3359 59.4541 51.3915 59.287C51.4488 59.122 51.5125 58.9614 51.5354 58.931C51.6106 58.8311 51.8951 58.5815 51.9834 58.5381C52.0324 58.5142 52.1175 58.4795 52.1747 58.46C52.4134 58.3775 52.6308 58.2016 52.76 57.9824C52.7992 57.9173 52.8401 57.863 52.8499 57.863C52.8793 57.863 53.4074 58.1387 53.5595 58.2342C53.6936 58.3167 53.8358 58.4404 53.9601 58.5837L54.0222 58.6553L53.9372 58.8941C53.8211 59.2219 53.7181 59.5453 53.5693 60.038C53.4222 60.5308 53.3747 60.6588 53.2587 60.8868C53.1687 61.0647 53.1573 61.0973 53.1131 61.3578C53.0592 61.6725 52.7878 62.5017 52.6962 62.632C52.6374 62.7166 52.5148 62.8165 52.3464 62.9163C52.1452 63.0357 52.0308 63.1269 52.0079 63.1855C51.9867 63.2354 52.0095 63.268 52.0684 63.268C52.1109 63.268 52.1616 63.3418 52.1959 63.4481C52.2237 63.5415 52.2384 63.5458 52.281 63.4829C52.33 63.4112 52.4543 63.2984 52.5164 63.2701C52.5475 63.2549 52.6537 63.2354 52.7502 63.2246C52.8483 63.2159 52.9349 63.1985 52.9447 63.1855C52.9546 63.1725 52.9676 63.116 52.9758 63.0596C52.984 63.0031 53.0477 62.7752 53.1197 62.5538C53.19 62.3324 53.2734 62.0567 53.3028 61.9439C53.3829 61.6378 53.7541 60.674 53.8767 60.4504C54.1121 60.0185 54.2772 59.6126 54.3623 59.2522C54.4571 58.855 54.4604 58.842 54.5061 58.8268C54.5307 58.8181 54.5699 58.8268 54.601 58.8463C54.6647 58.8854 54.7677 59.0026 54.7906 59.0591C54.8184 59.1307 54.753 59.2761 54.5895 59.5127C54.4129 59.7689 54.3639 59.8557 54.3639 59.9078C54.3639 59.9577 54.4718 60.0988 54.5094 60.0988C54.5536 60.0988 54.9083 59.5757 55.0457 59.3109C55.0849 59.2349 55.1094 59.2088 55.1405 59.2088C55.2272 59.2088 55.7029 59.5735 55.7275 59.6582C55.7471 59.7211 55.6931 59.7515 55.5623 59.7515C55.4103 59.7515 55.3449 59.7884 55.2795 59.9078C55.1977 60.0554 55.0538 60.4613 55.0097 60.6653C54.9149 61.1082 54.8021 62.0003 54.7563 62.6971C54.7383 62.9597 54.7399 63.0748 54.7661 63.3548C54.7841 63.5501 54.6386 64.1189 54.5519 64.1905C54.5339 64.2057 54.4277 64.26 54.3148 64.3099C54.0647 64.4228 53.9012 64.5248 53.8211 64.6203L53.7606 64.6941L53.862 64.7462C53.9584 64.7961 53.965 64.8026 53.9895 64.9046C54.0369 65.0957 54.1187 65.1109 54.1661 64.9394C54.2135 64.7679 54.3819 64.6507 54.6942 64.5704C54.8233 64.5378 54.8511 64.5009 54.8789 64.3316C54.8904 64.2534 54.9378 64.0385 54.9835 63.854C55.1585 63.1377 55.165 63.0965 55.183 62.671C55.1912 62.4561 55.2059 62.2434 55.2157 62.1978C55.2272 62.1414 55.2778 62.0502 55.3792 61.9048C55.5591 61.6487 55.613 61.5097 55.649 61.2232L55.6751 61.0126L55.5934 60.7283L55.5116 60.4461H55.8697C56.2752 60.4461 56.4289 60.47 56.5433 60.5481C56.6087 60.5937 56.6365 60.6024 56.7101 60.5915C56.8245 60.5763 56.921 60.5177 57.0174 60.407C57.145 60.2594 57.1826 60.2399 57.3395 60.2399C57.5079 60.2399 57.6551 60.3072 57.7483 60.4244C57.8218 60.5156 57.8791 60.7066 57.8905 60.8933C57.9052 61.106 57.9134 61.0995 57.3853 61.2341C57.1679 61.2905 57.0125 61.3708 56.9193 61.475C56.8899 61.5076 56.8294 61.6335 56.7771 61.7659C56.7281 61.8939 56.6643 62.0263 56.6365 62.0611C56.5809 62.1284 56.4975 62.3346 56.4403 62.5451C56.3912 62.7275 56.4011 62.8273 56.4975 63.09C56.6643 63.5501 56.8785 63.8888 57.2333 64.2513C57.3493 64.3728 57.5128 64.5443 57.5929 64.6355C57.794 64.8591 57.8464 64.9112 57.9477 64.9784C58.036 65.0392 58.0524 65.0653 58.2257 65.4299C58.3663 65.7317 58.6769 66.1376 58.9745 66.4111C59.0595 66.4914 59.259 66.6759 59.4159 66.8257C59.7936 67.186 59.9914 67.3488 60.2105 67.4921C60.5441 67.707 60.8007 67.7981 61.4106 67.9153C61.7964 67.9891 61.942 68 61.9894 67.9631C62.0155 67.9436 61.9714 67.9175 61.7114 67.8068C61.064 67.5268 60.7353 67.3293 60.5653 67.1165L60.4705 66.9993L60.6552 67.0102C60.9675 67.0297 61.3207 67.1426 61.9387 67.4183C62.1022 67.4899 62.2461 67.555 62.2575 67.5594C62.2706 67.568 62.2771 67.5442 62.2771 67.4877C62.2771 67.4161 62.2657 67.39 62.1888 67.2924C62.0711 67.1426 61.8651 67.0102 61.543 66.8821C61.2455 66.7627 61.1506 66.7106 61.0018 66.5782C60.8187 66.4154 60.6356 66.1246 60.2988 65.4495C60.119 65.0913 59.9669 64.8265 59.8181 64.6181C59.6873 64.4358 59.496 64.3251 59.2639 64.2969C59.1135 64.2795 58.9729 64.3121 58.7799 64.4141L58.6279 64.4922L58.5919 64.4293C58.5739 64.3924 58.4873 64.2469 58.4023 64.1037C58.193 63.7542 58.1913 63.7542 58.0328 63.3504C57.8415 62.8664 57.8055 62.7969 57.7254 62.7427C57.6894 62.7188 57.6109 62.6341 57.5553 62.556L57.4507 62.4127L57.575 62.3302C57.7123 62.2391 57.8529 62.1826 57.9477 62.1826C57.9919 62.1826 58.0229 62.1653 58.0655 62.1175C58.1276 62.0437 58.3826 61.8679 58.4595 61.8462C58.4873 61.8375 58.5216 61.8266 58.5396 61.8201C58.5559 61.8136 58.6132 61.7572 58.6655 61.6921C58.7603 61.577 58.7636 61.5748 58.8633 61.5748C59.1854 61.5748 59.3914 61.1559 59.2917 60.7088C59.2721 60.6198 59.2541 60.585 59.2116 60.5525C59.0955 60.4613 59.1314 60.3506 59.2884 60.3159C59.3914 60.2942 59.4552 60.2573 59.5631 60.1531C59.6808 60.0402 59.7348 60.012 59.8312 60.012C59.9032 60.012 59.9293 60.0228 59.9718 60.0684C59.9996 60.101 60.0323 60.1574 60.0454 60.1987C60.101 60.3766 60.3331 60.5004 60.6095 60.4982C60.8302 60.4982 60.8792 60.47 61.1016 60.2073C61.458 59.7884 61.9469 59.4324 62.2477 59.3716C62.2837 59.3651 62.3442 59.3217 62.4014 59.2631C62.4537 59.2088 62.5093 59.1654 62.5256 59.1654C62.6025 59.1654 62.6499 59.2284 62.7186 59.4194C62.7921 59.6256 62.8788 59.7623 62.9932 59.8513C63.0913 59.9295 63.1747 59.9642 63.3922 60.0228C63.6309 60.0879 63.7208 60.1379 63.8598 60.2855C63.9644 60.3962 64.0756 60.4678 64.1459 60.4678C64.2031 60.4678 64.311 60.5698 64.347 60.6567C64.3666 60.7022 64.3911 60.8173 64.4009 60.9128C64.4287 61.1689 64.4925 61.3274 64.6723 61.5662C64.8358 61.7854 65.0615 61.9938 65.3492 62.1913C65.5667 62.3433 65.6288 62.4257 65.7874 62.7774C65.9607 63.1638 66.0882 63.3743 66.4218 63.8215C66.6981 64.1948 66.8027 64.2708 67.7052 64.7592C67.7183 64.7679 67.5531 64.5335 67.3373 64.2426C66.8256 63.5501 66.6196 63.2094 66.4561 62.7752C66.3743 62.556 66.3024 62.2998 66.3187 62.2803C66.3318 62.2608 66.6866 62.3975 66.9531 62.5234C67.1853 62.6341 67.5352 62.8512 67.6807 62.9749C67.7346 63.0205 67.8246 63.1182 67.8818 63.192C68.0011 63.3461 68.0011 63.3439 67.9063 63.0075C67.7837 62.5734 67.6349 62.2391 67.4747 62.0437C67.3324 61.8679 67.1657 61.768 66.8534 61.6769C66.4561 61.5575 66.394 61.5032 66.1307 61.0344C65.7465 60.3528 65.3492 59.9186 64.9536 59.7493C64.7721 59.6734 64.6037 59.5366 64.3862 59.2935C63.8074 58.6445 63.6243 58.4665 63.3709 58.295C63.0717 58.0953 62.8772 58.0475 62.4848 58.0801C62.1545 58.1061 62.0809 58.1257 61.9158 58.2212C61.8439 58.2624 61.7719 58.2972 61.7556 58.2972C61.7082 58.2972 61.5512 58.4621 61.3076 58.7704C61.0133 59.1437 60.9904 59.1611 60.7353 59.2001C60.5424 59.2284 60.477 59.2501 60.3217 59.326C60.1582 59.4064 59.9963 59.2197 59.7838 58.7052C59.6726 58.4382 59.5353 58.2147 59.3832 58.0519C59.3113 57.9759 59.1086 57.8066 58.932 57.6763C58.4268 57.3008 58.4055 57.2704 58.3843 56.9383C58.3516 56.4326 58.1537 56.2806 58.0197 56.6605L57.9755 56.7842L57.8627 56.7734C57.6028 56.7473 57.3248 56.4412 57.073 55.9007C56.9161 55.5621 56.7624 55.3668 56.6528 55.3668C56.6365 55.3668 56.5989 55.4102 56.5695 55.4623C56.4256 55.7141 56.3111 55.6859 55.9335 55.306C55.6473 55.0173 55.5574 54.8936 55.3907 54.5658C55.3073 54.403 55.2059 54.2228 55.165 54.1642C55.0865 54.0492 54.9623 53.9341 54.9198 53.9341C54.9051 53.9341 54.8037 54.0166 54.6925 54.1165C54.583 54.2163 54.4734 54.3053 54.4505 54.314C54.4178 54.3248 54.3721 54.3053 54.2723 54.238C54.1007 54.1273 53.9601 53.945 53.7802 53.6085C53.5153 53.1071 53.2358 52.7207 53.0755 52.6296C52.9774 52.5731 52.9627 52.5753 52.8172 52.6751C52.6406 52.7924 52.4494 52.9877 52.1943 53.3111C51.985 53.5738 51.9229 53.6324 51.8951 53.5933C51.8689 53.5608 51.8461 53.2938 51.8461 53.0225C51.8461 52.432 51.8101 52.1846 51.6597 51.757L51.5861 51.5442L51.5321 51.5573C51.4128 51.5833 51.2133 51.605 51.1561 51.5942C51.0122 51.5725 51.0416 51.4813 51.2493 51.3185C51.331 51.2555 51.4242 51.1665 51.4569 51.1231C51.5256 51.032 51.8101 50.4046 51.8689 50.2071C51.8918 50.1355 51.918 50.0139 51.9278 49.9379C51.9474 49.7773 51.9491 49.4843 51.9327 49.4843C51.8411 49.4756 51.5125 49.3953 51.4667 49.3692C51.3964 49.3302 51.3834 49.2629 51.4373 49.2238C51.4586 49.2086 51.64 49.1999 51.9621 49.2021H52.4559L52.7845 48.9112C52.9644 48.7484 53.1687 48.5813 53.2358 48.5379C53.3829 48.4424 53.4271 48.4445 53.7181 48.5617C54.0026 48.679 54.2821 48.7419 54.5781 48.7593L54.8331 48.7745L54.8429 48.6898C54.8495 48.6442 54.8544 48.5813 54.8544 48.5509C54.8544 48.4554 54.8871 48.3338 54.9132 48.3338C54.9263 48.3338 54.9607 48.3794 54.9901 48.4359C55.134 48.7115 55.1879 48.7918 55.2926 48.883C55.4855 49.0545 55.6997 49.1326 56.1378 49.1912C56.4583 49.2347 56.5662 49.2629 56.6169 49.3215C56.6741 49.3866 56.6577 49.4322 56.4992 49.6536C56.2866 49.9531 56.128 50.2961 56.0397 50.6543C55.9841 50.8778 56.0495 51.3858 56.1722 51.7027C56.285 51.9914 56.5564 52.304 56.7558 52.3734C56.8866 52.4212 56.8866 52.3778 56.7558 52.2041C56.5727 51.9653 56.4975 51.7005 56.4992 51.3076C56.5008 51.0602 56.5237 50.9408 56.5973 50.8149C56.6676 50.6912 56.715 50.6716 57.0044 50.6543C57.382 50.6282 57.4769 50.5913 57.6224 50.4133C57.7074 50.3091 57.8431 50.0248 57.8971 49.8338C57.9575 49.6189 57.915 49.3996 57.7548 49.1022C57.642 48.8917 57.5929 48.7007 57.5047 48.1428C57.4785 47.9757 57.4425 47.802 57.4245 47.7543C57.351 47.5632 56.9749 47.1812 56.6447 46.9598C56.4076 46.8035 56.2163 46.7297 55.8681 46.6646C55.5999 46.6125 55.51 46.5756 55.4021 46.4692C55.2877 46.3564 55.2713 46.3455 55.1274 46.3064C54.8021 46.2174 54.068 46.1632 53.741 46.2066ZM56.6659 59.7363C56.6725 59.7841 56.5989 59.8817 56.5547 59.8817C56.5041 59.8817 56.5139 59.8079 56.5727 59.7406C56.6283 59.6799 56.6577 59.6799 56.6659 59.7363Z"
            fill="#4D42CA" />
    </g>
    <g clip-path="url(#clip1)">
        <path
            d="M36.6685 24.0217C36.4625 24.0478 36.2598 24.102 36.057 24.1845C35.802 24.2865 35.73 24.3039 35.4439 24.3256C35.1921 24.3451 35.1889 24.3473 35.0597 24.4341C34.7883 24.6143 34.2161 25.1982 33.8694 25.6475C33.6455 25.9384 33.5147 26.1576 33.5147 26.2401C33.5147 26.3161 33.4149 26.5375 33.3446 26.6156C33.307 26.6569 33.2612 26.709 33.2433 26.7307C33.1909 26.7915 33.1125 27.1366 33.016 27.7227C32.9146 28.3348 32.9065 28.4781 32.9588 28.6799C32.9882 28.7928 32.9931 28.8514 32.9882 29.177C32.9833 29.5308 32.9849 29.5504 33.0193 29.609C33.0552 29.6676 33.0552 29.6719 33.0291 29.7479C32.9637 29.9411 32.9751 30.0084 33.204 30.7725C33.4411 31.5669 33.4689 31.6299 33.7681 32.0184C33.9888 32.3093 34.0346 32.3939 34.0689 32.585C34.0804 32.6436 34.1245 32.8064 34.1686 32.9431C34.2618 33.2405 34.3027 33.4207 34.2962 33.501L34.2913 33.5618L34.0133 33.5748C33.6095 33.5943 33.5343 33.6225 32.9784 33.9655C32.483 34.2716 32.4814 34.2737 32.3457 34.2607C32.2819 34.2564 32.1625 34.2216 32.0775 34.1847C31.9925 34.1478 31.9173 34.1218 31.9091 34.1283C31.8928 34.1413 31.8911 34.2564 31.9059 34.3519C31.9206 34.4496 31.9762 34.5103 32.1135 34.5776C32.1805 34.6102 32.2443 34.6514 32.2557 34.6688C32.2819 34.7122 32.2443 34.7969 31.9925 35.244C31.883 35.4415 31.708 35.7628 31.605 35.9603C31.3925 36.3662 31.368 36.4075 31.1178 36.796C30.9151 37.1108 30.7499 37.3278 30.6322 37.4342C30.5897 37.4733 30.4638 37.5623 30.351 37.6317C30.1188 37.7772 30.0436 37.8445 30.0158 37.9356C29.9897 38.0203 30.0158 38.1071 30.0927 38.1961C30.1712 38.2894 30.2137 38.2808 30.2872 38.1614C30.3674 38.0333 30.4785 37.9335 30.7483 37.7533C31.0197 37.5688 31.0867 37.4885 31.3696 37.0022C31.4922 36.7939 31.6328 36.5594 31.6835 36.4813C31.8176 36.2751 31.9173 36.1014 32.1249 35.7042C32.2263 35.5088 32.3473 35.3048 32.3931 35.2505C32.5026 35.1203 32.6547 35.0269 32.9244 34.9293C33.2007 34.8316 33.2956 34.7643 33.4787 34.5386C33.6536 34.3237 33.6978 34.2998 33.8891 34.3171C34.0853 34.3345 34.5447 34.4908 34.6575 34.5776C34.7703 34.6666 34.9207 34.8598 34.9207 34.9141C34.9207 34.9966 34.7491 35.3005 34.5529 35.5588C34.445 35.702 34.3387 35.8323 34.3158 35.8453C34.2929 35.8605 34.2406 35.8909 34.1981 35.9147C34.1294 35.9516 34.1196 35.9668 34.1196 36.0211C34.1196 36.058 34.1392 36.1188 34.1686 36.1665C34.1964 36.2121 34.2177 36.2534 34.2177 36.2577C34.2177 36.2642 34.1801 36.3228 34.1343 36.3901C34.0395 36.5269 33.8678 36.9762 33.7746 37.3257C33.7092 37.5753 33.6177 37.7793 33.4051 38.157C33.2285 38.4696 33.1403 38.589 33.0503 38.6389C32.9915 38.6715 32.9882 38.6823 32.9669 38.856C32.9539 38.9645 32.9016 39.0318 32.7381 39.1512C32.5795 39.2641 32.5337 39.3162 32.5337 39.3813C32.5337 39.4442 32.6955 39.6787 32.7642 39.7177C32.81 39.7416 32.8182 39.7394 32.8378 39.7047C32.8509 39.683 32.8607 39.6331 32.8607 39.5984C32.8607 39.4204 32.9964 39.2988 33.1877 39.301C33.3446 39.3031 33.3708 39.2858 33.4051 39.1555C33.4198 39.0948 33.4623 38.9884 33.4999 38.9189C33.6618 38.6107 33.7468 38.424 33.8662 38.131C33.9823 37.8423 34.0313 37.7403 34.1686 37.4906C34.1948 37.4429 34.2635 37.2692 34.3191 37.1021C34.3763 36.9371 34.4401 36.7765 34.4629 36.7461C34.5381 36.6463 34.8226 36.3966 34.9109 36.3532C34.96 36.3293 35.045 36.2946 35.1022 36.2751C35.3409 36.1926 35.5584 36.0168 35.6875 35.7975C35.7268 35.7324 35.7676 35.6781 35.7775 35.6781C35.8069 35.6781 36.335 35.9538 36.487 36.0493C36.6211 36.1318 36.7633 36.2555 36.8876 36.3988L36.9497 36.4704L36.8647 36.7092C36.7486 37.037 36.6456 37.3604 36.4968 37.8531C36.3497 38.3459 36.3023 38.474 36.1862 38.7019C36.0963 38.8799 36.0848 38.9124 36.0407 39.1729C35.9867 39.4877 35.7153 40.3168 35.6238 40.4471C35.5649 40.5317 35.4423 40.6316 35.2739 40.7314C35.0728 40.8508 34.9583 40.942 34.9354 41.0006C34.9142 41.0505 34.9371 41.0831 34.9959 41.0831C35.0384 41.0831 35.0891 41.1569 35.1235 41.2633C35.1513 41.3566 35.166 41.3609 35.2085 41.298C35.2575 41.2264 35.3818 41.1135 35.4439 41.0853C35.475 41.0701 35.5813 41.0505 35.6777 41.0397C35.7758 41.031 35.8625 41.0136 35.8723 41.0006C35.8821 40.9876 35.8952 40.9311 35.9033 40.8747C35.9115 40.8183 35.9753 40.5903 36.0472 40.3689C36.1175 40.1475 36.2009 39.8719 36.2303 39.759C36.3104 39.4529 36.6816 38.4892 36.8042 38.2656C37.0396 37.8336 37.2048 37.4277 37.2898 37.0674C37.3846 36.6701 37.3879 36.6571 37.4337 36.6419C37.4582 36.6332 37.4974 36.6419 37.5285 36.6615C37.5923 36.7005 37.6953 36.8177 37.7182 36.8742C37.7459 36.9458 37.6805 37.0912 37.5171 37.3278C37.3405 37.584 37.2914 37.6708 37.2914 37.7229C37.2914 37.7728 37.3993 37.9139 37.4369 37.9139C37.4811 37.9139 37.8359 37.3908 37.9732 37.126C38.0124 37.05 38.037 37.024 38.068 37.024C38.1547 37.024 38.6305 37.3886 38.655 37.4733C38.6746 37.5362 38.6207 37.5666 38.4899 37.5666C38.3378 37.5666 38.2724 37.6035 38.207 37.7229C38.1253 37.8705 37.9814 38.2764 37.9372 38.4805C37.8424 38.9233 37.7296 39.8154 37.6838 40.5122C37.6658 40.7749 37.6675 40.8899 37.6936 41.1699C37.7116 41.3653 37.5661 41.934 37.4794 42.0056C37.4615 42.0208 37.3552 42.0751 37.2424 42.125C36.9922 42.2379 36.8287 42.3399 36.7486 42.4354L36.6881 42.5092L36.7895 42.5613C36.886 42.6112 36.8925 42.6177 36.917 42.7198C36.9644 42.9108 37.0462 42.926 37.0936 42.7545C37.141 42.583 37.3094 42.4658 37.6217 42.3855C37.7509 42.3529 37.7786 42.316 37.8064 42.1467C37.8179 42.0686 37.8653 41.8537 37.9111 41.6692C38.086 40.9528 38.0926 40.9116 38.1105 40.4862C38.1187 40.2713 38.1334 40.0585 38.1432 40.013C38.1547 39.9565 38.2054 39.8653 38.3067 39.7199C38.4866 39.4638 38.5405 39.3249 38.5765 39.0383L38.6027 38.8278L38.5209 38.5434L38.4392 38.2612H38.7972C39.2027 38.2612 39.3564 38.2851 39.4708 38.3633C39.5362 38.4088 39.564 38.4175 39.6376 38.4067C39.752 38.3915 39.8485 38.3329 39.945 38.2222C40.0725 38.0746 40.1101 38.055 40.2671 38.055C40.4355 38.055 40.5826 38.1223 40.6758 38.2395C40.7494 38.3307 40.8066 38.5217 40.818 38.7084C40.8328 38.9211 40.8409 38.9146 40.3128 39.0492C40.0954 39.1056 39.9401 39.1859 39.8469 39.2901C39.8174 39.3227 39.757 39.4486 39.7046 39.581C39.6556 39.7091 39.5918 39.8415 39.564 39.8762C39.5084 39.9435 39.4251 40.1497 39.3678 40.3603C39.3188 40.5426 39.3286 40.6424 39.4251 40.9051C39.5918 41.3653 39.806 41.7039 40.1608 42.0664C40.2769 42.188 40.4404 42.3594 40.5205 42.4506C40.7216 42.6742 40.7739 42.7263 40.8753 42.7936C40.9636 42.8543 40.9799 42.8804 41.1532 43.2451C41.2938 43.5468 41.6045 43.9527 41.902 44.2262C41.987 44.3065 42.1865 44.491 42.3435 44.6408C42.7211 45.0011 42.919 45.1639 43.1381 45.3072C43.4716 45.5221 43.7283 45.6133 44.3381 45.7305C44.724 45.8043 44.8695 45.8151 44.9169 45.7782C44.9431 45.7587 44.8989 45.7326 44.639 45.6219C43.9915 45.3419 43.6629 45.1444 43.4928 44.9317L43.398 44.8145L43.5828 44.8253C43.895 44.8448 44.2482 44.9577 44.8662 45.2334C45.0297 45.305 45.1736 45.3701 45.185 45.3745C45.1981 45.3832 45.2047 45.3593 45.2047 45.3028C45.2047 45.2312 45.1932 45.2052 45.1164 45.1075C44.9986 44.9577 44.7926 44.8253 44.4706 44.6972C44.173 44.5778 44.0782 44.5258 43.9294 44.3933C43.7463 44.2305 43.5631 43.9397 43.2263 43.2646C43.0465 42.9064 42.8944 42.6416 42.7457 42.4332C42.6149 42.2509 42.4236 42.1402 42.1914 42.112C42.041 42.0946 41.9004 42.1272 41.7075 42.2292L41.5554 42.3073L41.5194 42.2444C41.5015 42.2075 41.4148 42.0621 41.3298 41.9188C41.1205 41.5693 41.1189 41.5693 40.9603 41.1656C40.769 40.6815 40.733 40.6121 40.6529 40.5578C40.6169 40.5339 40.5385 40.4493 40.4829 40.3711L40.3782 40.2278L40.5025 40.1454C40.6398 40.0542 40.7804 39.9978 40.8753 39.9978C40.9194 39.9978 40.9505 39.9804 40.993 39.9326C41.0551 39.8588 41.3102 39.683 41.387 39.6613C41.4148 39.6526 41.4491 39.6418 41.4671 39.6353C41.4835 39.6287 41.5407 39.5723 41.593 39.5072C41.6878 39.3921 41.6911 39.39 41.7908 39.39C42.1129 39.39 42.3189 38.971 42.2192 38.5239C42.1996 38.4349 42.1816 38.4002 42.1391 38.3676C42.023 38.2764 42.059 38.1657 42.2159 38.131C42.3189 38.1093 42.3827 38.0724 42.4906 37.9682C42.6083 37.8553 42.6623 37.8271 42.7587 37.8271C42.8307 37.8271 42.8568 37.838 42.8994 37.8835C42.9271 37.9161 42.9598 37.9725 42.9729 38.0138C43.0285 38.1918 43.2607 38.3155 43.537 38.3133C43.7577 38.3133 43.8068 38.2851 44.0291 38.0225C44.3855 37.6035 44.8744 37.2475 45.1752 37.1868C45.2112 37.1802 45.2717 37.1368 45.3289 37.0782C45.3812 37.024 45.4368 36.9805 45.4532 36.9805C45.53 36.9805 45.5774 37.0435 45.6461 37.2345C45.7197 37.4407 45.8063 37.5775 45.9208 37.6665C46.0189 37.7446 46.1022 37.7793 46.3197 37.838C46.5584 37.9031 46.6483 37.953 46.7873 38.1006C46.8919 38.2113 47.0031 38.2829 47.0734 38.2829C47.1306 38.2829 47.2385 38.385 47.2745 38.4718C47.2941 38.5174 47.3187 38.6324 47.3285 38.7279C47.3563 38.9841 47.42 39.1425 47.5999 39.3813C47.7634 39.6005 47.989 39.8089 48.2767 40.0064C48.4942 40.1584 48.5563 40.2409 48.7149 40.5925C48.8882 40.9789 49.0158 41.1895 49.3493 41.6366C49.6256 42.01 49.7302 42.0859 50.6327 42.5743C50.6458 42.583 50.4807 42.3486 50.2649 42.0577C49.7531 41.3653 49.5471 41.0245 49.3836 40.5903C49.3019 40.3711 49.2299 40.115 49.2463 40.0954C49.2594 40.0759 49.6141 40.2127 49.8806 40.3386C50.1128 40.4493 50.4627 40.6663 50.6082 40.79C50.6622 40.8356 50.7521 40.9333 50.8093 41.0071C50.9287 41.1612 50.9287 41.1591 50.8338 40.8226C50.7112 40.3885 50.5624 40.0542 50.4022 39.8588C50.26 39.683 50.0932 39.5832 49.7809 39.492C49.3836 39.3726 49.3215 39.3183 49.0583 38.8495C48.674 38.1679 48.2767 37.7338 47.8811 37.5644C47.6996 37.4885 47.5312 37.3517 47.3138 37.1086C46.735 36.4596 46.5519 36.2816 46.2984 36.1101C45.9992 35.9104 45.8047 35.8627 45.4123 35.8952C45.082 35.9213 45.0085 35.9408 44.8433 36.0363C44.7714 36.0775 44.6994 36.1123 44.6831 36.1123C44.6357 36.1123 44.4787 36.2772 44.2351 36.5855C43.9408 36.9588 43.9179 36.9762 43.6629 37.0153C43.47 37.0435 43.4046 37.0652 43.2492 37.1412C43.0857 37.2215 42.9239 37.0348 42.7113 36.5204C42.6002 36.2534 42.4628 36.0298 42.3108 35.867C42.2388 35.791 42.0361 35.6217 41.8595 35.4915C41.3543 35.1159 41.3331 35.0856 41.3118 34.7534C41.2791 34.2477 41.0813 34.0957 40.9472 34.4756L40.9031 34.5993L40.7902 34.5885C40.5303 34.5624 40.2523 34.2564 40.0006 33.7159C39.8436 33.3772 39.6899 33.1819 39.5804 33.1819C39.564 33.1819 39.5264 33.2253 39.497 33.2774C39.3531 33.5292 39.2387 33.501 38.861 33.1211C38.5749 32.8324 38.485 32.7087 38.3182 32.3809C38.2348 32.2181 38.1334 32.038 38.0926 31.9793C38.0141 31.8643 37.8898 31.7493 37.8473 31.7493C37.8326 31.7493 37.7312 31.8317 37.6201 31.9316C37.5105 32.0314 37.401 32.1204 37.3781 32.1291C37.3454 32.14 37.2996 32.1204 37.1999 32.0531C37.0282 31.9424 36.8876 31.7601 36.7077 31.4237C36.4429 30.9222 36.1633 30.5359 36.0031 30.4447C35.905 30.3883 35.8903 30.3904 35.7448 30.4903C35.5682 30.6075 35.3769 30.8028 35.1218 31.1263C34.9126 31.3889 34.8504 31.4475 34.8226 31.4085C34.7965 31.3759 34.7736 31.1089 34.7736 30.8376C34.7736 30.2472 34.7376 29.9997 34.5872 29.5721L34.5136 29.3594L34.4597 29.3724C34.3403 29.3984 34.1409 29.4201 34.0836 29.4093C33.9398 29.3876 33.9692 29.2964 34.1768 29.1336C34.2586 29.0707 34.3518 28.9817 34.3845 28.9382C34.4531 28.8471 34.7376 28.2198 34.7965 28.0222C34.8194 27.9506 34.8455 27.829 34.8553 27.7531C34.875 27.5924 34.8766 27.2994 34.8602 27.2994C34.7687 27.2907 34.4401 27.2104 34.3943 27.1844C34.324 27.1453 34.3109 27.078 34.3648 27.0389C34.3861 27.0237 34.5676 27.015 34.8897 27.0172H35.3834L35.7121 26.7263C35.8919 26.5635 36.0963 26.3964 36.1633 26.353C36.3104 26.2575 36.3546 26.2597 36.6456 26.3769C36.9301 26.4941 37.2097 26.557 37.5056 26.5744L37.7607 26.5896L37.7705 26.5049C37.777 26.4594 37.7819 26.3964 37.7819 26.366C37.7819 26.2705 37.8146 26.149 37.8408 26.149C37.8539 26.149 37.8882 26.1945 37.9176 26.251C38.0615 26.5266 38.1154 26.607 38.2201 26.6981C38.413 26.8696 38.6272 26.9478 39.0654 27.0064C39.3858 27.0498 39.4937 27.078 39.5444 27.1366C39.6016 27.2017 39.5853 27.2473 39.4267 27.4687C39.2141 27.7683 39.0556 28.1112 38.9673 28.4694C38.9117 28.693 38.9771 29.2009 39.0997 29.5178C39.2125 29.8065 39.4839 30.1191 39.6834 30.1885C39.8142 30.2363 39.8142 30.1929 39.6834 30.0192C39.5003 29.7805 39.4251 29.5156 39.4267 29.1228C39.4283 28.8753 39.4512 28.7559 39.5248 28.63C39.5951 28.5063 39.6425 28.4868 39.9319 28.4694C40.3096 28.4433 40.4044 28.4064 40.5499 28.2284C40.6349 28.1243 40.7706 27.8399 40.8246 27.6489C40.8851 27.434 40.8426 27.2147 40.6823 26.9174C40.5695 26.7068 40.5205 26.5158 40.4322 25.9579C40.406 25.7908 40.3701 25.6171 40.3521 25.5694C40.2785 25.3784 39.9025 24.9963 39.5722 24.7749C39.3351 24.6186 39.1438 24.5448 38.7956 24.4797C38.5275 24.4276 38.4375 24.3907 38.3296 24.2844C38.2152 24.1715 38.1988 24.1606 38.055 24.1216C37.7296 24.0326 36.9955 23.9783 36.6685 24.0217ZM39.5935 37.5514C39.6 37.5992 39.5264 37.6969 39.4823 37.6969C39.4316 37.6969 39.4414 37.6231 39.5003 37.5558C39.5559 37.495 39.5853 37.495 39.5935 37.5514Z"
            fill="#4D42CA" />
    </g>
    <defs>
        <clipPath id="clip0">
            <rect width="20.9275" height="21.8151" fill="white"
                transform="translate(47.0725 46.1849)" />
        </clipPath>
        <clipPath id="clip1">
            <rect width="20.9275" height="21.8151" fill="white" transform="translate(30 24)" />
        </clipPath>
    </defs>
</svg>
